<svg xmlns="http://www.w3.org/2000/svg" xmlns:svgjs="http://svgjs.com/svgjs" xmlns:xlink="http://www.w3.org/1999/xlink" width="288" height="288"><svg xmlns="http://www.w3.org/2000/svg" width="288" height="288" viewBox="0 0 512 512"><g fill="#505050" class="color262626 svgShape"><path fill="#a6a6a6" d="M425.614 86.349C382.305 42.901 322.253 16.07 255.962 16.07c-66.16 0-126.207 26.831-169.652 70.278C42.865 129.793 16.028 189.707 16.028 256c0 66.29 26.836 126.209 70.282 169.652 43.445 43.447 103.492 70.276 169.652 70.276 66.291 0 126.342-26.829 169.652-70.276C469.057 382.209 495.896 322.29 495.896 256c0-66.292-26.838-126.206-70.282-169.651zm-13.149 326.15c-40.126 39.993-95.389 64.702-156.502 64.702-60.979 0-116.379-24.709-156.365-64.702-39.993-40.117-64.835-95.385-64.835-156.498 0-61.111 24.842-116.379 64.835-156.367 39.986-39.988 95.386-64.835 156.365-64.835 61.114 0 116.376 24.847 156.502 64.835 39.988 39.988 64.698 95.256 64.698 156.367 0 61.113-24.71 116.381-64.698 156.498z" class="color000 svgShape"/><path fill="#a6a6a6" d="M255.962 178.416c-42.78 0-77.585 34.805-77.585 77.585 0 42.915 34.805 77.59 77.585 77.59 42.911 0 77.585-34.675 77.585-77.59.001-42.78-34.674-77.585-77.585-77.585zm0 139.097c-33.877 0-61.379-27.502-61.379-61.512 0-33.877 27.501-61.512 61.379-61.512 34.01 0 61.511 27.635 61.511 61.512.001 34.01-27.5 61.512-61.511 61.512z" class="color000 svgShape"/><path fill="#a6a6a6" d="M319.466 136H192.594C161.374 136 135 161.274 135 192.633v126.876C135 350.72 161.374 373 192.594 373h126.872C350.818 373 377 350.72 377 319.509V192.633C377 161.274 350.818 136 319.466 136zM363 319.509C363 343.017 342.982 359 319.466 359H192.594C169.074 359 150 343.017 150 319.509V192.633c0-23.52 19.074-42.633 42.594-42.633h126.872C342.982 150 363 169.113 363 192.633v126.876z" class="color000 svgShape"/><path fill="#a6a6a6" d="M332.086 167.921a12.47 12.47 0 0 0-12.487 12.484c0 6.911 5.578 12.49 12.487 12.49a12.476 12.476 0 0 0 12.491-12.49c0-6.906-5.583-12.484-12.491-12.484z" class="color000 svgShape"/></g></svg></svg>